G04 Layer: TopSilkscreenLayer*
G04 EasyEDA v6.4.31, 2022-02-20 19:53:06*
G04 0ed3418abafd4005aecf6b74550100da,e2c35ec14d3a475c8af15a16e8970ea9,10*
G04 Gerber Generator version 0.2*
G04 Scale: 100 percent, Rotated: No, Reflected: No *
G04 Dimensions in millimeters *
G04 leading zeros omitted , absolute positions ,4 integer and 5 decimal *
%FSLAX45Y45*%
%MOMM*%

%ADD10C,0.0001*%

%LPD*%
G36*
X1974037Y-549706D02*
G01*
X1967738Y-549859D01*
X1961642Y-550316D01*
X1955698Y-551027D01*
X1950008Y-551992D01*
X1944573Y-553262D01*
X1939493Y-554837D01*
X1934718Y-556666D01*
X1930400Y-558800D01*
X1924964Y-561949D01*
X1914448Y-568909D01*
X1904492Y-576681D01*
X1895195Y-585216D01*
X1886508Y-594410D01*
X1878482Y-604215D01*
X1871218Y-614527D01*
X1864664Y-625348D01*
X1858924Y-636574D01*
X1853946Y-648106D01*
X1849882Y-659942D01*
X1846681Y-671931D01*
X1844446Y-684072D01*
X1843125Y-696214D01*
X1842852Y-704646D01*
X1879701Y-704646D01*
X1879803Y-697788D01*
X1880666Y-684784D01*
X1882393Y-672693D01*
X1884984Y-661466D01*
X1886610Y-656234D01*
X1888439Y-651205D01*
X1890471Y-646379D01*
X1892757Y-641807D01*
X1895246Y-637489D01*
X1898599Y-632256D01*
X1902206Y-627278D01*
X1906016Y-622503D01*
X1910029Y-617982D01*
X1918614Y-609650D01*
X1927809Y-602335D01*
X1932584Y-599033D01*
X1942490Y-593293D01*
X1947570Y-590804D01*
X1952701Y-588619D01*
X1963064Y-585114D01*
X1968296Y-583793D01*
X1973529Y-582777D01*
X1978710Y-582066D01*
X1989023Y-581609D01*
X1994052Y-581863D01*
X1999030Y-582472D01*
X2003907Y-583387D01*
X2008682Y-584606D01*
X2013305Y-586232D01*
X2017775Y-588162D01*
X2022093Y-590448D01*
X2026259Y-593140D01*
X2030475Y-596290D01*
X2034438Y-599592D01*
X2038197Y-603097D01*
X2041652Y-606755D01*
X2047849Y-614527D01*
X2050592Y-618591D01*
X2055317Y-627176D01*
X2059178Y-636168D01*
X2060752Y-640791D01*
X2063191Y-650341D01*
X2064105Y-655167D01*
X2065223Y-665022D01*
X2065528Y-675081D01*
X2065020Y-685139D01*
X2063699Y-695248D01*
X2061565Y-705256D01*
X2058670Y-715162D01*
X2055012Y-724814D01*
X2050694Y-734212D01*
X2045614Y-743204D01*
X2039874Y-751789D01*
X2033473Y-759866D01*
X2030069Y-763727D01*
X2022703Y-770940D01*
X2014728Y-777443D01*
X2006193Y-783183D01*
X2001723Y-785774D01*
X1992325Y-790244D01*
X1982419Y-793800D01*
X1972005Y-796340D01*
X1959864Y-798017D01*
X1953971Y-798525D01*
X1948688Y-798677D01*
X1943963Y-798423D01*
X1939594Y-797610D01*
X1935429Y-796340D01*
X1931365Y-794410D01*
X1927250Y-791870D01*
X1922932Y-788568D01*
X1918207Y-784555D01*
X1907184Y-773938D01*
X1896618Y-762863D01*
X1892503Y-757986D01*
X1889099Y-753313D01*
X1886356Y-748741D01*
X1884172Y-744067D01*
X1882546Y-739140D01*
X1881327Y-733755D01*
X1880514Y-727811D01*
X1880006Y-721055D01*
X1879701Y-704646D01*
X1842852Y-704646D01*
X1843074Y-714451D01*
X1843532Y-720496D01*
X1844293Y-726490D01*
X1845462Y-732536D01*
X1847088Y-738682D01*
X1849170Y-744982D01*
X1851660Y-751281D01*
X1854555Y-757631D01*
X1857806Y-763981D01*
X1861362Y-770229D01*
X1865223Y-776376D01*
X1869338Y-782370D01*
X1873656Y-788162D01*
X1878177Y-793699D01*
X1882851Y-798982D01*
X1887677Y-803910D01*
X1892554Y-808482D01*
X1897481Y-812698D01*
X1902460Y-816406D01*
X1907387Y-819607D01*
X1912315Y-822299D01*
X1917141Y-824433D01*
X1925574Y-827024D01*
X1928825Y-828395D01*
X1931670Y-830173D01*
X1934260Y-832459D01*
X1936597Y-835355D01*
X1938680Y-838962D01*
X1940610Y-843381D01*
X1942490Y-848664D01*
X1944268Y-855014D01*
X1947925Y-871169D01*
X1951989Y-892657D01*
X1954936Y-910539D01*
X1955647Y-917448D01*
X1955850Y-923340D01*
X1955444Y-928420D01*
X1954377Y-932992D01*
X1952701Y-937260D01*
X1950313Y-941527D01*
X1947164Y-945997D01*
X1932381Y-964387D01*
X1926031Y-973277D01*
X1919579Y-983183D01*
X1913026Y-993952D01*
X1906473Y-1005484D01*
X1899920Y-1017727D01*
X1887067Y-1043686D01*
X1880819Y-1057249D01*
X1868932Y-1084935D01*
X1863394Y-1098854D01*
X1853336Y-1126337D01*
X1848866Y-1139698D01*
X1844903Y-1152652D01*
X1841398Y-1165098D01*
X1838452Y-1176883D01*
X1836064Y-1187958D01*
X1834286Y-1198219D01*
X1833219Y-1207516D01*
X1832813Y-1215796D01*
X1833270Y-1224229D01*
X1834591Y-1233576D01*
X1836724Y-1243685D01*
X1839671Y-1254556D01*
X1843481Y-1266088D01*
X1848053Y-1278280D01*
X1853387Y-1291082D01*
X1859534Y-1304442D01*
X1886254Y-1360119D01*
X1868678Y-1416405D01*
X1860854Y-1443075D01*
X1853946Y-1468882D01*
X1847951Y-1493977D01*
X1842922Y-1518462D01*
X1838807Y-1542389D01*
X1835657Y-1566011D01*
X1833372Y-1589278D01*
X1832254Y-1606651D01*
X1831593Y-1629714D01*
X1831604Y-1642465D01*
X1864055Y-1642465D01*
X1864207Y-1631950D01*
X1865579Y-1608582D01*
X1868119Y-1582623D01*
X1871776Y-1555038D01*
X1876348Y-1526641D01*
X1881733Y-1498244D01*
X1887778Y-1470761D01*
X1890979Y-1457604D01*
X1894332Y-1444955D01*
X1907946Y-1399133D01*
X1934006Y-1438402D01*
X1942947Y-1450949D01*
X1952345Y-1463243D01*
X1961946Y-1475079D01*
X1971598Y-1486306D01*
X1981149Y-1496771D01*
X1990445Y-1506220D01*
X1999284Y-1514551D01*
X2007514Y-1521510D01*
X2014931Y-1527048D01*
X2018284Y-1529181D01*
X2024227Y-1532128D01*
X2026767Y-1532890D01*
X2028952Y-1533144D01*
X2033828Y-1532788D01*
X2037689Y-1531721D01*
X2040483Y-1529994D01*
X2042210Y-1527657D01*
X2042871Y-1524660D01*
X2042515Y-1521104D01*
X2041143Y-1517040D01*
X2038756Y-1512468D01*
X2035352Y-1507439D01*
X2030933Y-1501902D01*
X2025497Y-1496009D01*
X2016302Y-1487017D01*
X2010460Y-1480921D01*
X2004212Y-1473809D01*
X1997608Y-1465834D01*
X1990699Y-1457045D01*
X1976272Y-1437284D01*
X1961184Y-1415034D01*
X1945843Y-1390904D01*
X1938121Y-1378305D01*
X1926742Y-1358849D01*
X1912061Y-1332433D01*
X1905000Y-1319123D01*
X1894941Y-1299210D01*
X1879955Y-1267968D01*
X1874164Y-1255115D01*
X1869897Y-1244447D01*
X1867001Y-1235303D01*
X1866036Y-1231087D01*
X1864969Y-1223010D01*
X1864969Y-1214882D01*
X1865934Y-1206093D01*
X1867712Y-1195933D01*
X1870202Y-1183792D01*
X1872234Y-1175308D01*
X1874875Y-1165910D01*
X1878075Y-1155750D01*
X1886051Y-1133551D01*
X1895754Y-1109472D01*
X1906727Y-1084478D01*
X1915617Y-1065580D01*
X1921713Y-1053134D01*
X1931009Y-1034999D01*
X1943506Y-1012240D01*
X1949653Y-1001725D01*
X1961489Y-982980D01*
X1967128Y-974953D01*
X1977288Y-961644D01*
X1981707Y-955192D01*
X1985568Y-948842D01*
X1988769Y-942797D01*
X1991258Y-937260D01*
X1992934Y-932281D01*
X1993747Y-928217D01*
X1993544Y-925068D01*
X1989632Y-908303D01*
X1980387Y-862228D01*
X1976323Y-845007D01*
X1975764Y-839317D01*
X1977389Y-834644D01*
X1981047Y-831138D01*
X1986686Y-829056D01*
X1990801Y-828395D01*
X1994509Y-828294D01*
X1997811Y-828852D01*
X2000808Y-830122D01*
X2003450Y-832154D01*
X2005838Y-834999D01*
X2007971Y-838708D01*
X2009952Y-843330D01*
X2011730Y-848969D01*
X2013457Y-855624D01*
X2018436Y-882091D01*
X2020112Y-889406D01*
X2022093Y-894587D01*
X2024684Y-897991D01*
X2028240Y-899769D01*
X2033117Y-900277D01*
X2039518Y-899769D01*
X2047900Y-898499D01*
X2053742Y-897229D01*
X2060346Y-895248D01*
X2067509Y-892708D01*
X2074976Y-889609D01*
X2082546Y-886104D01*
X2090013Y-882294D01*
X2097024Y-878281D01*
X2110079Y-869797D01*
X2121611Y-862787D01*
X2126792Y-860196D01*
X2131720Y-858113D01*
X2136495Y-856640D01*
X2141118Y-855776D01*
X2145792Y-855421D01*
X2150618Y-855675D01*
X2155596Y-856538D01*
X2160879Y-857961D01*
X2166569Y-859942D01*
X2179472Y-865632D01*
X2202789Y-877569D01*
X2210003Y-880821D01*
X2216759Y-883412D01*
X2223058Y-885342D01*
X2228900Y-886612D01*
X2234336Y-887221D01*
X2239314Y-887120D01*
X2243886Y-886358D01*
X2248001Y-884936D01*
X2251760Y-882853D01*
X2255164Y-880059D01*
X2258110Y-876604D01*
X2260752Y-872439D01*
X2263038Y-867613D01*
X2264968Y-862076D01*
X2271725Y-834491D01*
X2272944Y-830783D01*
X2273960Y-828751D01*
X2274773Y-828497D01*
X2275484Y-829970D01*
X2275992Y-833272D01*
X2276703Y-845210D01*
X2277110Y-864463D01*
X2277618Y-878027D01*
X2278938Y-889914D01*
X2279954Y-895350D01*
X2281224Y-900480D01*
X2282799Y-905408D01*
X2284730Y-910132D01*
X2287066Y-914704D01*
X2289708Y-919124D01*
X2292807Y-923493D01*
X2296363Y-927862D01*
X2300376Y-932180D01*
X2304846Y-936599D01*
X2315464Y-945692D01*
X2328418Y-955548D01*
X2343861Y-966368D01*
X2351074Y-971753D01*
X2357678Y-977646D01*
X2363724Y-984148D01*
X2369210Y-991260D01*
X2374188Y-999083D01*
X2378608Y-1007668D01*
X2382520Y-1017066D01*
X2385923Y-1027277D01*
X2387498Y-1032713D01*
X2390190Y-1044346D01*
X2392476Y-1056995D01*
X2394305Y-1070660D01*
X2395728Y-1085494D01*
X2396744Y-1101445D01*
X2397404Y-1118616D01*
X2397658Y-1137056D01*
X2397455Y-1170635D01*
X2396591Y-1198270D01*
X2394864Y-1222857D01*
X2393645Y-1234490D01*
X2392121Y-1246073D01*
X2388057Y-1269695D01*
X2382469Y-1295400D01*
X2375099Y-1325219D01*
X2413203Y-1325219D01*
X2413457Y-1319631D01*
X2414219Y-1312773D01*
X2417368Y-1294231D01*
X2424836Y-1255877D01*
X2426868Y-1244142D01*
X2429306Y-1226718D01*
X2430627Y-1215085D01*
X2432354Y-1191056D01*
X2432862Y-1178560D01*
X2433066Y-1165453D01*
X2432964Y-1144625D01*
X2432558Y-1129741D01*
X2428036Y-1025652D01*
X2511501Y-975664D01*
X2537409Y-960780D01*
X2562453Y-946962D01*
X2586736Y-934212D01*
X2610408Y-922375D01*
X2639263Y-908862D01*
X2661920Y-899007D01*
X2689961Y-887780D01*
X2712262Y-879602D01*
X2740152Y-870051D01*
X2752140Y-865581D01*
X2777337Y-855370D01*
X2802737Y-844092D01*
X2826308Y-832612D01*
X2836773Y-827125D01*
X2853893Y-817422D01*
X2870403Y-808634D01*
X2879090Y-804367D01*
X2892653Y-798068D01*
X2911957Y-789838D01*
X2932633Y-781761D01*
X2954832Y-773836D01*
X2978708Y-766013D01*
X3004312Y-758190D01*
X3031845Y-750417D01*
X3061309Y-742645D01*
X3092907Y-734771D01*
X3122930Y-727811D01*
X3136392Y-725017D01*
X3149244Y-722630D01*
X3161741Y-720648D01*
X3173933Y-719023D01*
X3186176Y-717702D01*
X3198520Y-716788D01*
X3211271Y-716127D01*
X3224530Y-715721D01*
X3253536Y-715721D01*
X3286912Y-716584D01*
X3301136Y-717194D01*
X3313531Y-718007D01*
X3324504Y-719074D01*
X3334359Y-720547D01*
X3343503Y-722426D01*
X3352241Y-724763D01*
X3360928Y-727710D01*
X3369919Y-731266D01*
X3379571Y-735533D01*
X3401771Y-746353D01*
X3413099Y-752551D01*
X3424021Y-759104D01*
X3434435Y-765962D01*
X3444087Y-772922D01*
X3452723Y-779780D01*
X3460140Y-786485D01*
X3466185Y-792784D01*
X3470960Y-798677D01*
X3477158Y-805586D01*
X3485032Y-813612D01*
X3494278Y-822452D01*
X3504641Y-831900D01*
X3515715Y-841603D01*
X3527298Y-851306D01*
X3548938Y-868426D01*
X3565956Y-882345D01*
X3583279Y-897686D01*
X3600805Y-914247D01*
X3618484Y-931976D01*
X3636162Y-950721D01*
X3653739Y-970280D01*
X3671112Y-990600D01*
X3688181Y-1011580D01*
X3704844Y-1032967D01*
X3716985Y-1049274D01*
X3736492Y-1076756D01*
X3744010Y-1087780D01*
X3761841Y-1115314D01*
X3775100Y-1137259D01*
X3781399Y-1148080D01*
X3793083Y-1169568D01*
X3802583Y-1188516D01*
X3810558Y-1206296D01*
X3818280Y-1225448D01*
X3825697Y-1245768D01*
X3831031Y-1261719D01*
X3837838Y-1283919D01*
X3845814Y-1312926D01*
X3848862Y-1324864D01*
X3855974Y-1355547D01*
X3859885Y-1374444D01*
X3865930Y-1406601D01*
X3871163Y-1439367D01*
X3874820Y-1465935D01*
X3878630Y-1499412D01*
X3879900Y-1512824D01*
X3882034Y-1539646D01*
X3888028Y-1652676D01*
X3867607Y-1647088D01*
X3836111Y-1639925D01*
X3779520Y-1627733D01*
X3710787Y-1613306D01*
X3664559Y-1603044D01*
X3635298Y-1596034D01*
X3608476Y-1589227D01*
X3585159Y-1582877D01*
X3566363Y-1577238D01*
X3553104Y-1572615D01*
X3540556Y-1567434D01*
X3526739Y-1562658D01*
X3511194Y-1558442D01*
X3497275Y-1555394D01*
X3481628Y-1552651D01*
X3464051Y-1550111D01*
X3444240Y-1547825D01*
X3421938Y-1545793D01*
X3396894Y-1543862D01*
X3368801Y-1542135D01*
X3337407Y-1540510D01*
X3263595Y-1537512D01*
X3173323Y-1534718D01*
X3071825Y-1531924D01*
X2994812Y-1529334D01*
X2965094Y-1527962D01*
X2940202Y-1526489D01*
X2919374Y-1524863D01*
X2901899Y-1522933D01*
X2886913Y-1520748D01*
X2873756Y-1518208D01*
X2858617Y-1514449D01*
X2846628Y-1510893D01*
X2833065Y-1506423D01*
X2793796Y-1492351D01*
X2741980Y-1472895D01*
X2682290Y-1449933D01*
X2595981Y-1415999D01*
X2536444Y-1392123D01*
X2484831Y-1370990D01*
X2445969Y-1354429D01*
X2432812Y-1348486D01*
X2424531Y-1344422D01*
X2422448Y-1343152D01*
X2419604Y-1340916D01*
X2417267Y-1338681D01*
X2415489Y-1336243D01*
X2414219Y-1333296D01*
X2413406Y-1329690D01*
X2413203Y-1325219D01*
X2375099Y-1325219D01*
X2366467Y-1356817D01*
X2357018Y-1387195D01*
X2352192Y-1401419D01*
X2347417Y-1414678D01*
X2342692Y-1426768D01*
X2338171Y-1437487D01*
X2333955Y-1446631D01*
X2330043Y-1453946D01*
X2323744Y-1464056D01*
X2319985Y-1470964D01*
X2316988Y-1477518D01*
X2314702Y-1483614D01*
X2313228Y-1489252D01*
X2312466Y-1494332D01*
X2312466Y-1498752D01*
X2313279Y-1502562D01*
X2314854Y-1505610D01*
X2317191Y-1507845D01*
X2320340Y-1509268D01*
X2324252Y-1509725D01*
X2326538Y-1509268D01*
X2329180Y-1507896D01*
X2332126Y-1505712D01*
X2335326Y-1502765D01*
X2338832Y-1499158D01*
X2346299Y-1490167D01*
X2354122Y-1479296D01*
X2361996Y-1467104D01*
X2369566Y-1454099D01*
X2376424Y-1440891D01*
X2382215Y-1428038D01*
X2386634Y-1416100D01*
X2389987Y-1403858D01*
X2393899Y-1391869D01*
X2395829Y-1386890D01*
X2397709Y-1382776D01*
X2399487Y-1379677D01*
X2401062Y-1377746D01*
X2402382Y-1377035D01*
X2407107Y-1378458D01*
X2435555Y-1388922D01*
X2484374Y-1407668D01*
X2702864Y-1493469D01*
X2734665Y-1505610D01*
X2763113Y-1516176D01*
X2788615Y-1525219D01*
X2811576Y-1532991D01*
X2832354Y-1539443D01*
X2851454Y-1544828D01*
X2869234Y-1549196D01*
X2877769Y-1551076D01*
X2898444Y-1554835D01*
X2914751Y-1557020D01*
X2935528Y-1559052D01*
X2953004Y-1560169D01*
X2971647Y-1560982D01*
X3046628Y-1563319D01*
X3225952Y-1570329D01*
X3314496Y-1574241D01*
X3397250Y-1578356D01*
X3427679Y-1580388D01*
X3452418Y-1582521D01*
X3472738Y-1584960D01*
X3489858Y-1587804D01*
X3504996Y-1591259D01*
X3512210Y-1593240D01*
X3530396Y-1599184D01*
X3546398Y-1604924D01*
X3566210Y-1611477D01*
X3589731Y-1618437D01*
X3615486Y-1625498D01*
X3648760Y-1633829D01*
X3674567Y-1639620D01*
X3716680Y-1648256D01*
X3764279Y-1658315D01*
X3821328Y-1670812D01*
X3868267Y-1681378D01*
X3974846Y-1706118D01*
X4270603Y-1699818D01*
X4350207Y-1698548D01*
X4417364Y-1697939D01*
X4467656Y-1698040D01*
X4485132Y-1698396D01*
X4500118Y-1699209D01*
X4501896Y-1699564D01*
X4502099Y-1699768D01*
X4501946Y-1700326D01*
X4500524Y-1701800D01*
X4497832Y-1703832D01*
X4488637Y-1709420D01*
X4474870Y-1716786D01*
X4452112Y-1728165D01*
X4430064Y-1738731D01*
X4377842Y-1762810D01*
X4318355Y-1789328D01*
X4287164Y-1802892D01*
X4240072Y-1822957D01*
X4179366Y-1848154D01*
X4151071Y-1859483D01*
X4124807Y-1869693D01*
X4101185Y-1878584D01*
X4080662Y-1885899D01*
X4059885Y-1892554D01*
X4044492Y-1896922D01*
X4028897Y-1900783D01*
X4007358Y-1905254D01*
X3984396Y-1909013D01*
X3959402Y-1912213D01*
X3931767Y-1915007D01*
X3896918Y-1917903D01*
X3860292Y-1921256D01*
X3830726Y-1924456D01*
X3811828Y-1927098D01*
X3804107Y-1928875D01*
X3789679Y-1930806D01*
X3766616Y-1933143D01*
X3737000Y-1935632D01*
X3670757Y-1940306D01*
X3637076Y-1943100D01*
X3611575Y-1945792D01*
X3581298Y-1949754D01*
X3558235Y-1953463D01*
X3535984Y-1957628D01*
X3514445Y-1962251D01*
X3464407Y-1974596D01*
X3443376Y-1979117D01*
X3428187Y-1981809D01*
X3413048Y-1983993D01*
X3392017Y-1986178D01*
X3369005Y-1987702D01*
X3342843Y-1988616D01*
X3312464Y-1989175D01*
X3274618Y-1989582D01*
X3242716Y-1990394D01*
X3229254Y-1991055D01*
X3217011Y-1991969D01*
X3205683Y-1993138D01*
X3195015Y-1994611D01*
X3184702Y-1996439D01*
X3174390Y-1998675D01*
X3163874Y-2001316D01*
X3152800Y-2004415D01*
X3106166Y-2019147D01*
X3086049Y-2024888D01*
X3064967Y-2030171D01*
X3042716Y-2035098D01*
X3019247Y-2039620D01*
X2994456Y-2043836D01*
X2968244Y-2047697D01*
X2917088Y-2054098D01*
X2893669Y-2057247D01*
X2862427Y-2061921D01*
X2830068Y-2067204D01*
X2804261Y-2071674D01*
X2779115Y-2076297D01*
X2755341Y-2080920D01*
X2733446Y-2085492D01*
X2694686Y-2094230D01*
X2671267Y-2099056D01*
X2641092Y-2104644D01*
X2612136Y-2109216D01*
X2598115Y-2111146D01*
X2571089Y-2114194D01*
X2558084Y-2115362D01*
X2533243Y-2116886D01*
X2509875Y-2117445D01*
X2488133Y-2116937D01*
X2477871Y-2116277D01*
X2458669Y-2114245D01*
X2449728Y-2112822D01*
X2434386Y-2109774D01*
X2415184Y-2106625D01*
X2389987Y-2103170D01*
X2360371Y-2099513D01*
X2328011Y-2095855D01*
X2242362Y-2087625D01*
X2212136Y-2084374D01*
X2186127Y-2080971D01*
X2174443Y-2079142D01*
X2153056Y-2075078D01*
X2143150Y-2072792D01*
X2133600Y-2070303D01*
X2124303Y-2067560D01*
X2115210Y-2064562D01*
X2096973Y-2057704D01*
X2078024Y-2049424D01*
X2057450Y-2039620D01*
X2039416Y-2030526D01*
X2026615Y-2023719D01*
X2014880Y-2017064D01*
X2004161Y-2010562D01*
X1994407Y-2004009D01*
X1985416Y-1997405D01*
X1977136Y-1990547D01*
X1969465Y-1983486D01*
X1962302Y-1976018D01*
X1955546Y-1968093D01*
X1949094Y-1959610D01*
X1942846Y-1950466D01*
X1936750Y-1940560D01*
X1930654Y-1929892D01*
X1925675Y-1920544D01*
X1921865Y-1912569D01*
X1918055Y-1903730D01*
X1910486Y-1883816D01*
X1903120Y-1861362D01*
X1895957Y-1836928D01*
X1889201Y-1811020D01*
X1883003Y-1784299D01*
X1877466Y-1757324D01*
X1874977Y-1743862D01*
X1871675Y-1723999D01*
X1868068Y-1698447D01*
X1865528Y-1674368D01*
X1864715Y-1663141D01*
X1864207Y-1652473D01*
X1864055Y-1642465D01*
X1831604Y-1642465D01*
X1832254Y-1664411D01*
X1833829Y-1687830D01*
X1834896Y-1699615D01*
X1837791Y-1723491D01*
X1841550Y-1747875D01*
X1844954Y-1766519D01*
X1850237Y-1792020D01*
X1857451Y-1822754D01*
X1865426Y-1852625D01*
X1869541Y-1866595D01*
X1873808Y-1879955D01*
X1878228Y-1892706D01*
X1882800Y-1904847D01*
X1887524Y-1916480D01*
X1892503Y-1927555D01*
X1897634Y-1938121D01*
X1903018Y-1948230D01*
X1908606Y-1957882D01*
X1914499Y-1967077D01*
X1920646Y-1975866D01*
X1927098Y-1984298D01*
X1933854Y-1992375D01*
X1940915Y-2000097D01*
X1948383Y-2007514D01*
X1956155Y-2014626D01*
X1964334Y-2021484D01*
X1972868Y-2028088D01*
X1981860Y-2034489D01*
X1991207Y-2040686D01*
X2001062Y-2046681D01*
X2011375Y-2052574D01*
X2022144Y-2058365D01*
X2033422Y-2064004D01*
X2058568Y-2075738D01*
X2082596Y-2086102D01*
X2094077Y-2090623D01*
X2105304Y-2094738D01*
X2116429Y-2098497D01*
X2127504Y-2101900D01*
X2138578Y-2104999D01*
X2149805Y-2107793D01*
X2161235Y-2110282D01*
X2172970Y-2112518D01*
X2185111Y-2114499D01*
X2210968Y-2117902D01*
X2239467Y-2120595D01*
X2293416Y-2124659D01*
X2326944Y-2127961D01*
X2354122Y-2131110D01*
X2380030Y-2134463D01*
X2403246Y-2137918D01*
X2424836Y-2141474D01*
X2436418Y-2143150D01*
X2459990Y-2145792D01*
X2484018Y-2147519D01*
X2496210Y-2148078D01*
X2520797Y-2148484D01*
X2545740Y-2148027D01*
X2558288Y-2147468D01*
X2577236Y-2146198D01*
X2602636Y-2143760D01*
X2628188Y-2140407D01*
X2641041Y-2138426D01*
X2660243Y-2135022D01*
X2685897Y-2129739D01*
X2735275Y-2118004D01*
X2758592Y-2113229D01*
X2784805Y-2108301D01*
X2813050Y-2103323D01*
X2857347Y-2096211D01*
X2886862Y-2091943D01*
X2915361Y-2088134D01*
X2947822Y-2084070D01*
X2979318Y-2079701D01*
X3008122Y-2075230D01*
X3034538Y-2070506D01*
X3058972Y-2065528D01*
X3081680Y-2060193D01*
X3103118Y-2054504D01*
X3118459Y-2049881D01*
X3142284Y-2042109D01*
X3166059Y-2034743D01*
X3176524Y-2031898D01*
X3186480Y-2029460D01*
X3196132Y-2027529D01*
X3205835Y-2026005D01*
X3215843Y-2024786D01*
X3226358Y-2023922D01*
X3250336Y-2023008D01*
X3280003Y-2022957D01*
X3312312Y-2023262D01*
X3344468Y-2023008D01*
X3366820Y-2022144D01*
X3387598Y-2020468D01*
X3397808Y-2019300D01*
X3418535Y-2016150D01*
X3440836Y-2011832D01*
X3465982Y-2006244D01*
X3495294Y-1999234D01*
X3525672Y-1992426D01*
X3554222Y-1986940D01*
X3567836Y-1984654D01*
X3593693Y-1981047D01*
X3606037Y-1979726D01*
X3617925Y-1978710D01*
X3629456Y-1977999D01*
X3652723Y-1977491D01*
X3681120Y-1976475D01*
X3702608Y-1975154D01*
X3728720Y-1972818D01*
X3739794Y-1971446D01*
X3755136Y-1968957D01*
X3772103Y-1966620D01*
X3819347Y-1961286D01*
X3846931Y-1958593D01*
X3910939Y-1953056D01*
X3940759Y-1949704D01*
X3970426Y-1945792D01*
X3998468Y-1941423D01*
X4023207Y-1936851D01*
X4033926Y-1934616D01*
X4043273Y-1932381D01*
X4060748Y-1927352D01*
X4081018Y-1920798D01*
X4103674Y-1912924D01*
X4128363Y-1903882D01*
X4154830Y-1893773D01*
X4182618Y-1882800D01*
X4248607Y-1855622D01*
X4278630Y-1842820D01*
X4345533Y-1813306D01*
X4401820Y-1787398D01*
X4427931Y-1774952D01*
X4452264Y-1763064D01*
X4474464Y-1751888D01*
X4494225Y-1741525D01*
X4511141Y-1732178D01*
X4524959Y-1723948D01*
X4535322Y-1717039D01*
X4539081Y-1714144D01*
X4541824Y-1711604D01*
X4544060Y-1708505D01*
X4545431Y-1703628D01*
X4545736Y-1698904D01*
X4544974Y-1694383D01*
X4543196Y-1690116D01*
X4540402Y-1686102D01*
X4536541Y-1682292D01*
X4531715Y-1678787D01*
X4525924Y-1675536D01*
X4519117Y-1672539D01*
X4511395Y-1669897D01*
X4502708Y-1667510D01*
X4491532Y-1665224D01*
X4481576Y-1664360D01*
X4466336Y-1663750D01*
X4446320Y-1663395D01*
X4408576Y-1663242D01*
X4346752Y-1663954D01*
X4275886Y-1665528D01*
X4193133Y-1668170D01*
X4125722Y-1669796D01*
X4066133Y-1670659D01*
X4022394Y-1670710D01*
X4001617Y-1670456D01*
X3984294Y-1669999D01*
X3970782Y-1669288D01*
X3961333Y-1668373D01*
X3947363Y-1665884D01*
X3937965Y-1663801D01*
X3931158Y-1661617D01*
X3926484Y-1658975D01*
X3923639Y-1655622D01*
X3922217Y-1651254D01*
X3921861Y-1645564D01*
X3922725Y-1625498D01*
X3922725Y-1606296D01*
X3921861Y-1584807D01*
X3920286Y-1561388D01*
X3917289Y-1529791D01*
X3914140Y-1503070D01*
X3910380Y-1475384D01*
X3906113Y-1447088D01*
X3900068Y-1411325D01*
X3894734Y-1382826D01*
X3887520Y-1347724D01*
X3879799Y-1313891D01*
X3873296Y-1288186D01*
X3866642Y-1263954D01*
X3859784Y-1241552D01*
X3856482Y-1231646D01*
X3849217Y-1212494D01*
X3840378Y-1192225D01*
X3830116Y-1171041D01*
X3818534Y-1149045D01*
X3805834Y-1126490D01*
X3792067Y-1103579D01*
X3777437Y-1080363D01*
X3758031Y-1051356D01*
X3745890Y-1034084D01*
X3733495Y-1016914D01*
X3720846Y-1000048D01*
X3703675Y-978052D01*
X3686301Y-956818D01*
X3668877Y-936498D01*
X3651504Y-917295D01*
X3634282Y-899363D01*
X3625799Y-890930D01*
X3609086Y-875284D01*
X3592880Y-861314D01*
X3560826Y-836015D01*
X3542131Y-820216D01*
X3522827Y-803249D01*
X3504488Y-786384D01*
X3477107Y-760171D01*
X3467354Y-751433D01*
X3457803Y-743356D01*
X3448405Y-735939D01*
X3439058Y-729132D01*
X3429762Y-722934D01*
X3420364Y-717296D01*
X3410864Y-712216D01*
X3401161Y-707644D01*
X3391255Y-703529D01*
X3381044Y-699922D01*
X3370427Y-696722D01*
X3359404Y-693928D01*
X3347872Y-691540D01*
X3335782Y-689508D01*
X3323082Y-687832D01*
X3309721Y-686460D01*
X3295599Y-685342D01*
X3280613Y-684479D01*
X3250895Y-683463D01*
X3237687Y-683209D01*
X3219399Y-683310D01*
X3207918Y-683666D01*
X3196793Y-684326D01*
X3185820Y-685241D01*
X3174746Y-686460D01*
X3163366Y-688035D01*
X3151479Y-689965D01*
X3125317Y-694994D01*
X3094634Y-701649D01*
X3060700Y-709523D01*
X3029305Y-717296D01*
X3000298Y-725017D01*
X2973425Y-732688D01*
X2948584Y-740460D01*
X2925572Y-748334D01*
X2904236Y-756412D01*
X2884373Y-764743D01*
X2874924Y-769010D01*
X2861360Y-775563D01*
X2844139Y-784656D01*
X2827477Y-794308D01*
X2817520Y-799744D01*
X2806293Y-805484D01*
X2780995Y-817372D01*
X2767431Y-823315D01*
X2739796Y-834542D01*
X2726232Y-839673D01*
X2681427Y-855268D01*
X2660040Y-863549D01*
X2637942Y-872744D01*
X2615285Y-882853D01*
X2592222Y-893775D01*
X2568854Y-905408D01*
X2545334Y-917752D01*
X2521813Y-930706D01*
X2492552Y-947674D01*
X2463698Y-965403D01*
X2415844Y-995934D01*
X2383790Y-960831D01*
X2375154Y-952144D01*
X2366111Y-943610D01*
X2357170Y-935685D01*
X2348738Y-928827D01*
X2341372Y-923391D01*
X2331923Y-917295D01*
X2326995Y-913333D01*
X2323236Y-909066D01*
X2320493Y-904189D01*
X2318613Y-898296D01*
X2317496Y-891133D01*
X2316886Y-882243D01*
X2316734Y-834390D01*
X2361184Y-818489D01*
X2371191Y-813917D01*
X2380538Y-808685D01*
X2389225Y-802843D01*
X2397201Y-796391D01*
X2404465Y-789432D01*
X2411069Y-781964D01*
X2416962Y-774090D01*
X2422144Y-765810D01*
X2426563Y-757224D01*
X2430322Y-748284D01*
X2433370Y-739190D01*
X2435656Y-729843D01*
X2437231Y-720394D01*
X2438044Y-710844D01*
X2438146Y-701243D01*
X2437485Y-691692D01*
X2436114Y-682193D01*
X2433980Y-672795D01*
X2431034Y-663549D01*
X2427376Y-654558D01*
X2422956Y-645769D01*
X2417775Y-637336D01*
X2411831Y-629259D01*
X2405075Y-621588D01*
X2397556Y-614375D01*
X2389225Y-607669D01*
X2380132Y-601522D01*
X2369464Y-595579D01*
X2363673Y-592785D01*
X2357932Y-590296D01*
X2352192Y-588162D01*
X2346452Y-586333D01*
X2340711Y-584809D01*
X2335022Y-583590D01*
X2329281Y-582726D01*
X2323592Y-582168D01*
X2317851Y-581863D01*
X2312060Y-581964D01*
X2306320Y-582320D01*
X2294686Y-583996D01*
X2288794Y-585317D01*
X2276906Y-588924D01*
X2270912Y-591210D01*
X2258720Y-596696D01*
X2252268Y-599998D01*
X2246274Y-603402D01*
X2240584Y-606958D01*
X2235352Y-610616D01*
X2230424Y-614375D01*
X2225852Y-618337D01*
X2221636Y-622452D01*
X2217724Y-626719D01*
X2214168Y-631190D01*
X2210917Y-635914D01*
X2207971Y-640842D01*
X2205329Y-645972D01*
X2202992Y-651408D01*
X2200910Y-657098D01*
X2199081Y-663041D01*
X2196236Y-675894D01*
X2194356Y-690067D01*
X2193275Y-706475D01*
X2223566Y-706475D01*
X2223617Y-700735D01*
X2223973Y-695045D01*
X2224633Y-689356D01*
X2225700Y-683768D01*
X2227072Y-678230D01*
X2228748Y-672795D01*
X2230729Y-667512D01*
X2233015Y-662330D01*
X2235657Y-657352D01*
X2238603Y-652576D01*
X2241804Y-647954D01*
X2245309Y-643636D01*
X2249119Y-639521D01*
X2253234Y-635711D01*
X2257602Y-632155D01*
X2262276Y-628954D01*
X2267204Y-626110D01*
X2272385Y-623570D01*
X2279954Y-620420D01*
X2286965Y-617829D01*
X2293518Y-615797D01*
X2299716Y-614324D01*
X2305659Y-613410D01*
X2311501Y-613105D01*
X2317343Y-613308D01*
X2323287Y-614070D01*
X2329484Y-615442D01*
X2335987Y-617321D01*
X2342946Y-619810D01*
X2350516Y-622808D01*
X2355596Y-625144D01*
X2360472Y-627735D01*
X2365044Y-630529D01*
X2369362Y-633628D01*
X2373426Y-636930D01*
X2377236Y-640384D01*
X2384044Y-647954D01*
X2389835Y-656234D01*
X2392324Y-660552D01*
X2394559Y-665022D01*
X2396540Y-669594D01*
X2399690Y-679043D01*
X2401824Y-688797D01*
X2402890Y-698754D01*
X2402941Y-708812D01*
X2401925Y-718769D01*
X2401011Y-723747D01*
X2399842Y-728675D01*
X2398420Y-733501D01*
X2396744Y-738276D01*
X2394813Y-743000D01*
X2392629Y-747572D01*
X2390140Y-752043D01*
X2387396Y-756412D01*
X2384399Y-760628D01*
X2381148Y-764692D01*
X2377643Y-768553D01*
X2373884Y-772261D01*
X2369870Y-775766D01*
X2365552Y-779068D01*
X2360980Y-782167D01*
X2356154Y-785012D01*
X2351074Y-787603D01*
X2345486Y-790041D01*
X2339898Y-792022D01*
X2334209Y-793597D01*
X2328468Y-794766D01*
X2322728Y-795528D01*
X2316988Y-795832D01*
X2311247Y-795782D01*
X2305558Y-795324D01*
X2299868Y-794461D01*
X2294178Y-793191D01*
X2288590Y-791565D01*
X2283104Y-789533D01*
X2277668Y-787095D01*
X2272334Y-784301D01*
X2267102Y-781151D01*
X2262022Y-777595D01*
X2257044Y-773684D01*
X2252268Y-769366D01*
X2247646Y-764743D01*
X2243175Y-759714D01*
X2239518Y-755040D01*
X2236266Y-750163D01*
X2233371Y-745083D01*
X2230882Y-739902D01*
X2228748Y-734517D01*
X2227021Y-729081D01*
X2225598Y-723493D01*
X2224582Y-717854D01*
X2223922Y-712165D01*
X2223566Y-706475D01*
X2193275Y-706475D01*
X2192985Y-714908D01*
X2193137Y-724458D01*
X2194102Y-733094D01*
X2196033Y-741273D01*
X2197404Y-745337D01*
X2201113Y-753770D01*
X2206193Y-762965D01*
X2212949Y-773430D01*
X2221433Y-785723D01*
X2231948Y-800252D01*
X2235149Y-806754D01*
X2236927Y-815086D01*
X2237181Y-824280D01*
X2235758Y-833475D01*
X2230577Y-854252D01*
X2193747Y-835609D01*
X2187803Y-832967D01*
X2176272Y-828700D01*
X2170684Y-827024D01*
X2159711Y-824737D01*
X2154326Y-824128D01*
X2148992Y-823823D01*
X2143658Y-823823D01*
X2133142Y-824890D01*
X2127910Y-825957D01*
X2122627Y-827328D01*
X2117293Y-829056D01*
X2111959Y-831087D01*
X2106574Y-833475D01*
X2101088Y-836218D01*
X2083511Y-846582D01*
X2077262Y-850036D01*
X2071319Y-853033D01*
X2065883Y-855471D01*
X2061108Y-857300D01*
X2057095Y-858469D01*
X2054047Y-858875D01*
X2052116Y-858469D01*
X2049170Y-854913D01*
X2046020Y-848258D01*
X2043023Y-839469D01*
X2040585Y-829462D01*
X2039416Y-822401D01*
X2038959Y-816203D01*
X2039264Y-810615D01*
X2040382Y-805434D01*
X2042464Y-800404D01*
X2045512Y-795375D01*
X2049576Y-790143D01*
X2058873Y-779932D01*
X2066442Y-770686D01*
X2073148Y-760984D01*
X2079091Y-750874D01*
X2084171Y-740410D01*
X2088489Y-729691D01*
X2091943Y-718769D01*
X2094636Y-707644D01*
X2096465Y-696468D01*
X2097532Y-685292D01*
X2097786Y-674116D01*
X2097278Y-663041D01*
X2095957Y-652119D01*
X2093823Y-641400D01*
X2092502Y-636117D01*
X2089200Y-625856D01*
X2085136Y-615899D01*
X2080260Y-606450D01*
X2074621Y-597408D01*
X2071522Y-593090D01*
X2064715Y-584962D01*
X2057146Y-577392D01*
X2053082Y-573887D01*
X2044344Y-567436D01*
X2039772Y-564642D01*
X2034844Y-562051D01*
X2029561Y-559714D01*
X2023973Y-557631D01*
X2018131Y-555752D01*
X2012137Y-554126D01*
X2005939Y-552754D01*
X1999589Y-551637D01*
X1986788Y-550164D01*
G37*
G36*
X1975307Y-660349D02*
G01*
X1969617Y-660450D01*
X1964080Y-660958D01*
X1958898Y-661822D01*
X1954123Y-662990D01*
X1949957Y-664413D01*
X1946554Y-666089D01*
X1944014Y-668020D01*
X1940661Y-672236D01*
X1938070Y-677468D01*
X1936191Y-683412D01*
X1934972Y-689914D01*
X1934514Y-696874D01*
X1934667Y-703986D01*
X1935530Y-711098D01*
X1937054Y-718058D01*
X1939188Y-724662D01*
X1941931Y-730707D01*
X1945284Y-735990D01*
X1949246Y-740359D01*
X1953564Y-743864D01*
X1958035Y-746607D01*
X1962556Y-748690D01*
X1967077Y-750112D01*
X1971700Y-750874D01*
X1976221Y-751078D01*
X1980742Y-750722D01*
X1985162Y-749808D01*
X1989480Y-748385D01*
X1993595Y-746455D01*
X1997557Y-744067D01*
X2001266Y-741273D01*
X2004771Y-738124D01*
X2007920Y-734517D01*
X2010765Y-730656D01*
X2013254Y-726440D01*
X2015337Y-721918D01*
X2016963Y-717143D01*
X2018131Y-712165D01*
X2018842Y-706983D01*
X2018995Y-701649D01*
X2018538Y-696163D01*
X2017522Y-690575D01*
X2015845Y-684885D01*
X2013457Y-678840D01*
X2010867Y-673912D01*
X2007870Y-669950D01*
X2004263Y-666800D01*
X1999945Y-664464D01*
X1994763Y-662686D01*
X1988464Y-661466D01*
X1980946Y-660603D01*
G37*
G36*
X2303983Y-667512D02*
G01*
X2298801Y-668680D01*
X2293670Y-671322D01*
X2288387Y-675487D01*
X2282850Y-681075D01*
X2279243Y-685444D01*
X2276246Y-690016D01*
X2273858Y-694690D01*
X2271979Y-699465D01*
X2270658Y-704240D01*
X2269845Y-709066D01*
X2269540Y-713841D01*
X2269693Y-718566D01*
X2270404Y-723138D01*
X2271522Y-727557D01*
X2273096Y-731723D01*
X2275179Y-735634D01*
X2277618Y-739292D01*
X2280513Y-742594D01*
X2283764Y-745490D01*
X2287422Y-747928D01*
X2291435Y-749960D01*
X2295855Y-751433D01*
X2300579Y-752348D01*
X2305659Y-752652D01*
X2310688Y-752246D01*
X2315464Y-751128D01*
X2319883Y-749249D01*
X2323998Y-746810D01*
X2327706Y-743813D01*
X2331110Y-740308D01*
X2334056Y-736346D01*
X2336647Y-732078D01*
X2338781Y-727506D01*
X2340457Y-722731D01*
X2341626Y-717753D01*
X2342337Y-712724D01*
X2342540Y-707694D01*
X2342184Y-702665D01*
X2341321Y-697738D01*
X2339848Y-693013D01*
X2337816Y-688543D01*
X2335174Y-684326D01*
X2331872Y-680516D01*
X2327910Y-677164D01*
X2321153Y-672642D01*
X2314956Y-669493D01*
X2309317Y-667816D01*
G37*
G36*
X3059734Y-847090D02*
G01*
X3045764Y-847344D01*
X3032709Y-848055D01*
X3020923Y-849121D01*
X3010814Y-850646D01*
X3006445Y-851560D01*
X2999384Y-853744D01*
X2993644Y-856386D01*
X2988259Y-859434D01*
X2983382Y-862736D01*
X2979064Y-866343D01*
X2975305Y-870051D01*
X2972206Y-873912D01*
X2969768Y-877722D01*
X2968142Y-881481D01*
X2967278Y-885037D01*
X2967329Y-888390D01*
X2968294Y-891489D01*
X2970225Y-894130D01*
X2975254Y-897077D01*
X2982163Y-897382D01*
X2991053Y-894994D01*
X3006293Y-888034D01*
X3010611Y-886307D01*
X3020263Y-883310D01*
X3030982Y-881024D01*
X3042716Y-879348D01*
X3055213Y-878382D01*
X3068370Y-878027D01*
X3081985Y-878332D01*
X3095904Y-879348D01*
X3109976Y-880973D01*
X3123996Y-883259D01*
X3137814Y-886206D01*
X3151276Y-889762D01*
X3166110Y-894689D01*
X3187039Y-902309D01*
X3212592Y-912012D01*
X3241243Y-923340D01*
X3286912Y-941933D01*
X3325825Y-958291D01*
X3364585Y-974242D01*
X3379978Y-980287D01*
X3392982Y-985062D01*
X3403752Y-988720D01*
X3412439Y-991260D01*
X3419297Y-992682D01*
X3424478Y-993089D01*
X3428136Y-992479D01*
X3429457Y-991819D01*
X3430473Y-990955D01*
X3431184Y-989837D01*
X3431692Y-988517D01*
X3431895Y-985215D01*
X3431387Y-981100D01*
X3430930Y-980033D01*
X3428441Y-977341D01*
X3424021Y-973886D01*
X3417722Y-969771D01*
X3409848Y-965098D01*
X3389680Y-954176D01*
X3364839Y-941730D01*
X3336493Y-928319D01*
X3305911Y-914501D01*
X3274415Y-900836D01*
X3235553Y-884834D01*
X3206445Y-873506D01*
X3180435Y-864209D01*
X3168954Y-860450D01*
X3158744Y-857402D01*
X3149955Y-855167D01*
X3138220Y-852830D01*
X3125165Y-850849D01*
X3111195Y-849325D01*
X3096615Y-848156D01*
X3081782Y-847445D01*
G37*
G36*
X2913786Y-987145D02*
G01*
X2896362Y-987247D01*
X2880969Y-987602D01*
X2867355Y-988212D01*
X2855315Y-989126D01*
X2844495Y-990346D01*
X2834741Y-992022D01*
X2825750Y-994054D01*
X2817266Y-996543D01*
X2808986Y-999490D01*
X2800756Y-1002995D01*
X2785618Y-1010259D01*
X2772664Y-1017320D01*
X2761894Y-1024229D01*
X2757271Y-1027633D01*
X2753207Y-1031036D01*
X2749600Y-1034389D01*
X2746552Y-1037793D01*
X2743962Y-1041146D01*
X2741879Y-1044549D01*
X2740253Y-1047902D01*
X2739085Y-1051356D01*
X2738424Y-1054760D01*
X2738221Y-1058265D01*
X2738475Y-1062736D01*
X2739288Y-1066292D01*
X2740660Y-1068984D01*
X2742539Y-1070813D01*
X2745028Y-1071727D01*
X2748026Y-1071778D01*
X2751632Y-1070965D01*
X2755798Y-1069238D01*
X2760573Y-1066596D01*
X2765856Y-1063091D01*
X2771800Y-1058722D01*
X2780944Y-1051306D01*
X2786583Y-1047140D01*
X2792577Y-1043330D01*
X2798978Y-1039723D01*
X2805785Y-1036421D01*
X2812948Y-1033424D01*
X2820517Y-1030681D01*
X2828493Y-1028192D01*
X2836875Y-1025956D01*
X2845612Y-1024026D01*
X2854807Y-1022400D01*
X2864358Y-1020978D01*
X2874314Y-1019860D01*
X2884627Y-1019048D01*
X2895396Y-1018489D01*
X2906522Y-1018184D01*
X2930042Y-1018438D01*
X2942386Y-1018946D01*
X2968294Y-1020826D01*
X2981807Y-1022146D01*
X2995777Y-1023772D01*
X3024886Y-1027836D01*
X3055569Y-1033018D01*
X3087928Y-1039266D01*
X3121863Y-1046632D01*
X3157423Y-1055065D01*
X3196640Y-1065022D01*
X3217367Y-1069949D01*
X3235248Y-1073607D01*
X3250184Y-1076045D01*
X3262274Y-1077163D01*
X3267202Y-1077315D01*
X3271418Y-1077112D01*
X3274923Y-1076604D01*
X3277717Y-1075740D01*
X3279749Y-1074623D01*
X3281121Y-1073150D01*
X3281730Y-1071422D01*
X3281629Y-1069340D01*
X3280765Y-1066952D01*
X3279241Y-1064260D01*
X3276955Y-1061212D01*
X3274009Y-1058418D01*
X3269742Y-1055522D01*
X3264306Y-1052474D01*
X3257651Y-1049375D01*
X3249930Y-1046226D01*
X3241192Y-1042974D01*
X3220974Y-1036421D01*
X3197555Y-1029817D01*
X3171494Y-1023315D01*
X3143402Y-1016965D01*
X3113836Y-1010919D01*
X3083356Y-1005332D01*
X3052572Y-1000252D01*
X3022041Y-995883D01*
X2992323Y-992225D01*
X2963976Y-989482D01*
X2937611Y-987755D01*
X2925368Y-987298D01*
G37*
G36*
X2274366Y-1121714D02*
G01*
X2270912Y-1122324D01*
X2267051Y-1123746D01*
X2262886Y-1125931D01*
X2258314Y-1128877D01*
X2253386Y-1132586D01*
X2248154Y-1137107D01*
X2238451Y-1146302D01*
X2234031Y-1150010D01*
X2229205Y-1153515D01*
X2224074Y-1156868D01*
X2218537Y-1160119D01*
X2212644Y-1163167D01*
X2206396Y-1166063D01*
X2192782Y-1171448D01*
X2185365Y-1173937D01*
X2177542Y-1176274D01*
X2163368Y-1179931D01*
X2151735Y-1182471D01*
X2140407Y-1184402D01*
X2129332Y-1185824D01*
X2118410Y-1186688D01*
X2107641Y-1186942D01*
X2096871Y-1186637D01*
X2086051Y-1185773D01*
X2075180Y-1184300D01*
X2064156Y-1182268D01*
X2052878Y-1179626D01*
X2041296Y-1176375D01*
X2029307Y-1172514D01*
X2016963Y-1168095D01*
X2002840Y-1162608D01*
X1988159Y-1157274D01*
X1975916Y-1153261D01*
X1967534Y-1151026D01*
X1965248Y-1150721D01*
X1963115Y-1151026D01*
X1961388Y-1151940D01*
X1960016Y-1153464D01*
X1959000Y-1155547D01*
X1958339Y-1158138D01*
X1957984Y-1161186D01*
X1957933Y-1164742D01*
X1958187Y-1168654D01*
X1959559Y-1177747D01*
X1961997Y-1188110D01*
X1965993Y-1201521D01*
X1999030Y-1201521D01*
X1999437Y-1200048D01*
X2000605Y-1199896D01*
X2007158Y-1201013D01*
X2018131Y-1203756D01*
X2044852Y-1211529D01*
X2055012Y-1213967D01*
X2065832Y-1215847D01*
X2077161Y-1217269D01*
X2088997Y-1218184D01*
X2101088Y-1218590D01*
X2113483Y-1218488D01*
X2125980Y-1217930D01*
X2138527Y-1216914D01*
X2150973Y-1215390D01*
X2163318Y-1213408D01*
X2175306Y-1210970D01*
X2186990Y-1208024D01*
X2198166Y-1204671D01*
X2213508Y-1199235D01*
X2228646Y-1194155D01*
X2234082Y-1192631D01*
X2238298Y-1191869D01*
X2241346Y-1191768D01*
X2243378Y-1192428D01*
X2244496Y-1193850D01*
X2244801Y-1196035D01*
X2244496Y-1198981D01*
X2242312Y-1207312D01*
X2239111Y-1216507D01*
X2234692Y-1226667D01*
X2229358Y-1237488D01*
X2223211Y-1248714D01*
X2216454Y-1259992D01*
X2209292Y-1271016D01*
X2201926Y-1281531D01*
X2194509Y-1291183D01*
X2187194Y-1299718D01*
X2180285Y-1306779D01*
X2176119Y-1310335D01*
X2171598Y-1313484D01*
X2166721Y-1316278D01*
X2161590Y-1318768D01*
X2156155Y-1320850D01*
X2150516Y-1322628D01*
X2144674Y-1324000D01*
X2138680Y-1325067D01*
X2132584Y-1325727D01*
X2126437Y-1326083D01*
X2120239Y-1326032D01*
X2114042Y-1325626D01*
X2107844Y-1324914D01*
X2101799Y-1323797D01*
X2095804Y-1322324D01*
X2090013Y-1320495D01*
X2084374Y-1318310D01*
X2078989Y-1315720D01*
X2073859Y-1312773D01*
X2069033Y-1309522D01*
X2066086Y-1306982D01*
X2062683Y-1303426D01*
X2054504Y-1293622D01*
X2045207Y-1281176D01*
X2035352Y-1266952D01*
X2025548Y-1251966D01*
X2016455Y-1237234D01*
X2008682Y-1223721D01*
X2002840Y-1212342D01*
X2000808Y-1207770D01*
X1999538Y-1204112D01*
X1999030Y-1201521D01*
X1965993Y-1201521D01*
X1969566Y-1211884D01*
X1974545Y-1224788D01*
X1980133Y-1237996D01*
X1986280Y-1251254D01*
X1992884Y-1264361D01*
X1999792Y-1277010D01*
X2006955Y-1289050D01*
X2014270Y-1300124D01*
X2021586Y-1309979D01*
X2025243Y-1314450D01*
X2032406Y-1322070D01*
X2035962Y-1325270D01*
X2040686Y-1329029D01*
X2051354Y-1336141D01*
X2057196Y-1339494D01*
X2069642Y-1345641D01*
X2082800Y-1350924D01*
X2089556Y-1353261D01*
X2096312Y-1355293D01*
X2109876Y-1358595D01*
X2123135Y-1360678D01*
X2129485Y-1361186D01*
X2135682Y-1361389D01*
X2139797Y-1361287D01*
X2144014Y-1360881D01*
X2152396Y-1359255D01*
X2156612Y-1358087D01*
X2165096Y-1354937D01*
X2173579Y-1350873D01*
X2181961Y-1345895D01*
X2190343Y-1340104D01*
X2198573Y-1333449D01*
X2206650Y-1326083D01*
X2214524Y-1317955D01*
X2222246Y-1309217D01*
X2229662Y-1299870D01*
X2236825Y-1289913D01*
X2243683Y-1279499D01*
X2250135Y-1268577D01*
X2256231Y-1257249D01*
X2261920Y-1245565D01*
X2267102Y-1233525D01*
X2271826Y-1221282D01*
X2275992Y-1208735D01*
X2279599Y-1196086D01*
X2282647Y-1183284D01*
X2285034Y-1170381D01*
X2286711Y-1157478D01*
X2287320Y-1151026D01*
X2287625Y-1144676D01*
X2287422Y-1139139D01*
X2286863Y-1134313D01*
X2285796Y-1130300D01*
X2284323Y-1127048D01*
X2282444Y-1124559D01*
X2280158Y-1122832D01*
X2277465Y-1121918D01*
G37*
G36*
X2997708Y-1143152D02*
G01*
X2971952Y-1143457D01*
X2948076Y-1144320D01*
X2926283Y-1145590D01*
X2906522Y-1147368D01*
X2888996Y-1149604D01*
X2873756Y-1152347D01*
X2860903Y-1155547D01*
X2855417Y-1157325D01*
X2846628Y-1160881D01*
X2833319Y-1167180D01*
X2819400Y-1174648D01*
X2805328Y-1182979D01*
X2791561Y-1191869D01*
X2778556Y-1201013D01*
X2766822Y-1210005D01*
X2756763Y-1218539D01*
X2748889Y-1226362D01*
X2745943Y-1229868D01*
X2743657Y-1233068D01*
X2742184Y-1235913D01*
X2740558Y-1240536D01*
X2739694Y-1244447D01*
X2739542Y-1247749D01*
X2740101Y-1250289D01*
X2741371Y-1252220D01*
X2743301Y-1253439D01*
X2745892Y-1253998D01*
X2749042Y-1253896D01*
X2752852Y-1253134D01*
X2757170Y-1251712D01*
X2762046Y-1249629D01*
X2767482Y-1246886D01*
X2773375Y-1243482D01*
X2779725Y-1239469D01*
X2786583Y-1234744D01*
X2806192Y-1220571D01*
X2819704Y-1211834D01*
X2833624Y-1203553D01*
X2847187Y-1196187D01*
X2859684Y-1190142D01*
X2870301Y-1185926D01*
X2875483Y-1184300D01*
X2887421Y-1181455D01*
X2901594Y-1179118D01*
X2917952Y-1177239D01*
X2936494Y-1175816D01*
X2957169Y-1174902D01*
X2980029Y-1174496D01*
X3005023Y-1174546D01*
X3032150Y-1175054D01*
X3061411Y-1176070D01*
X3092805Y-1177594D01*
X3126282Y-1179576D01*
X3161842Y-1182014D01*
X3239058Y-1188262D01*
X3276498Y-1191006D01*
X3309518Y-1192936D01*
X3336798Y-1193952D01*
X3356914Y-1194104D01*
X3363925Y-1193800D01*
X3368598Y-1193241D01*
X3370834Y-1192428D01*
X3373932Y-1188720D01*
X3374898Y-1186992D01*
X3375456Y-1185316D01*
X3375609Y-1183741D01*
X3375355Y-1182166D01*
X3374593Y-1180693D01*
X3373424Y-1179220D01*
X3371799Y-1177848D01*
X3369665Y-1176477D01*
X3363874Y-1173886D01*
X3356000Y-1171397D01*
X3345891Y-1169009D01*
X3333496Y-1166672D01*
X3318611Y-1164437D01*
X3301237Y-1162151D01*
X3258362Y-1157528D01*
X3214116Y-1153464D01*
X3177997Y-1150518D01*
X3143148Y-1148080D01*
X3109620Y-1146149D01*
X3077565Y-1144676D01*
X3047085Y-1143711D01*
X3018231Y-1143203D01*
G37*
G36*
X3174644Y-1268323D02*
G01*
X3167888Y-1268730D01*
X3165297Y-1269238D01*
X3163214Y-1269898D01*
X3161639Y-1270812D01*
X3160522Y-1271879D01*
X3159861Y-1273149D01*
X3159658Y-1274622D01*
X3159810Y-1276451D01*
X3160979Y-1280109D01*
X3163316Y-1283614D01*
X3166821Y-1287068D01*
X3171393Y-1290472D01*
X3177032Y-1293723D01*
X3183686Y-1296873D01*
X3191408Y-1299972D01*
X3200044Y-1302867D01*
X3209696Y-1305712D01*
X3220262Y-1308404D01*
X3231743Y-1310944D01*
X3244088Y-1313383D01*
X3257245Y-1315669D01*
X3285998Y-1319733D01*
X3317849Y-1323136D01*
X3352444Y-1325829D01*
X3389629Y-1327759D01*
X3436874Y-1329182D01*
X3477564Y-1329740D01*
X3494227Y-1329588D01*
X3508552Y-1329131D01*
X3520744Y-1328318D01*
X3530955Y-1327200D01*
X3539236Y-1325727D01*
X3545840Y-1323848D01*
X3550818Y-1321612D01*
X3552748Y-1320342D01*
X3554323Y-1318971D01*
X3555593Y-1317498D01*
X3556558Y-1315923D01*
X3557219Y-1314246D01*
X3557727Y-1310538D01*
X3557574Y-1309166D01*
X3557117Y-1307896D01*
X3556355Y-1306728D01*
X3555136Y-1305661D01*
X3553561Y-1304696D01*
X3551478Y-1303782D01*
X3545738Y-1302308D01*
X3537610Y-1301140D01*
X3526840Y-1300276D01*
X3513074Y-1299616D01*
X3495954Y-1299210D01*
X3419094Y-1298600D01*
X3390290Y-1297686D01*
X3363569Y-1296212D01*
X3338474Y-1294079D01*
X3326384Y-1292758D01*
X3308807Y-1290421D01*
X3297275Y-1288643D01*
X3280206Y-1285646D01*
X3235807Y-1276756D01*
X3217468Y-1273403D01*
X3201974Y-1270914D01*
X3189173Y-1269288D01*
X3178911Y-1268425D01*
G37*
G36*
X2804058Y-1683613D02*
G01*
X2798470Y-1683766D01*
X2793847Y-1684172D01*
X2790037Y-1684883D01*
X2786938Y-1685899D01*
X2784500Y-1687220D01*
X2782570Y-1688896D01*
X2781147Y-1690878D01*
X2780030Y-1693265D01*
X2778556Y-1698396D01*
X2778048Y-1703324D01*
X2778556Y-1707438D01*
X2780030Y-1710232D01*
X2781350Y-1710943D01*
X2788005Y-1712569D01*
X2799232Y-1714500D01*
X2814218Y-1716532D01*
X2832201Y-1718614D01*
X2891028Y-1724152D01*
X2916936Y-1727047D01*
X2942031Y-1730552D01*
X2967736Y-1734972D01*
X2989681Y-1739341D01*
X3013659Y-1744624D01*
X3040380Y-1750872D01*
X3070555Y-1758340D01*
X3193542Y-1790090D01*
X3233013Y-1799285D01*
X3249320Y-1802587D01*
X3263442Y-1805127D01*
X3275584Y-1806803D01*
X3285794Y-1807718D01*
X3294227Y-1807870D01*
X3300984Y-1807210D01*
X3306267Y-1805838D01*
X3308350Y-1804873D01*
X3310077Y-1803704D01*
X3311499Y-1802384D01*
X3312617Y-1800860D01*
X3313429Y-1799183D01*
X3313988Y-1797304D01*
X3314192Y-1795373D01*
X3313937Y-1793544D01*
X3313277Y-1791817D01*
X3312058Y-1790141D01*
X3310280Y-1788464D01*
X3307892Y-1786839D01*
X3304844Y-1785213D01*
X3301085Y-1783537D01*
X3291281Y-1780082D01*
X3278124Y-1776323D01*
X3261156Y-1772056D01*
X3204159Y-1758797D01*
X3148838Y-1745081D01*
X3090316Y-1729689D01*
X3067151Y-1723389D01*
X3044037Y-1717548D01*
X3026816Y-1713484D01*
X3003854Y-1708556D01*
X2974695Y-1703019D01*
X2950819Y-1699006D01*
X2926130Y-1695399D01*
X2900426Y-1692097D01*
X2873451Y-1689049D01*
X2827324Y-1684782D01*
X2810662Y-1683766D01*
G37*
M02*
